<svg width="198" height="198" viewBox="0 0 198 198" fill="none" xmlns="http://www.w3.org/2000/svg">
<circle cx="99.0008" cy="98.9999" r="98.4" fill="#E5E5E5"/>
<mask id="mask0_1_6" style="mask-type:alpha" maskUnits="userSpaceOnUse" x="0" y="0" width="198" height="198">
<circle cx="99.0008" cy="98.9999" r="98.4" fill="#D9D9D9"/>
</mask>
<g mask="url(#mask0_1_6)">
<path d="M99.4005 111.4C122.007 111.4 140.334 93.0731 140.334 70.4663C140.334 47.8594 122.007 29.533 99.4005 29.533C76.7937 29.533 58.4672 47.8594 58.4672 70.4663C58.4672 93.0731 76.7937 111.4 99.4005 111.4Z" fill="#666666"/>
<path d="M181.269 183.033V193.266C181.269 195.98 180.191 198.583 178.272 200.502C176.353 202.422 173.75 203.5 171.036 203.5H27.7693C25.0552 203.5 22.4524 202.422 20.5332 200.502C18.6141 198.583 17.536 195.98 17.536 193.266V183.033C17.536 166.749 24.0049 151.131 35.5196 139.617C47.0343 128.102 62.6517 121.633 78.936 121.633H119.869C136.154 121.633 151.771 128.102 163.286 139.617C174.8 151.131 181.269 166.749 181.269 183.033Z" fill="#666666"/>
<ellipse cx="82.5805" cy="66.1999" rx="7.57895" ry="9.6" fill="#D9D9D9"/>
<ellipse cx="107.843" cy="66.1999" rx="7.57895" ry="9.6" fill="#D9D9D9"/>
</g>
</svg>
